<?xml version="1.0" encoding="utf-8"?>
<!-- Generator: Adobe Illustrator 22.1.0, SVG Export Plug-In . SVG Version: 6.00 Build 0)  -->
<svg version="1.1" xmlns="http://www.w3.org/2000/svg" xmlns:xlink="http://www.w3.org/1999/xlink" x="0px" y="0px"
	 viewBox="0 0 1920 1080" style="enable-background:new 0 0 1920 1080;" xml:space="preserve">
<style type="text/css">
	.st0{fill:#E6ECFF;}
	.st1{fill:#5B6BE8;}
</style>
<g id="Layer_3">
	<path class="st0" d="M1679.9-253.7c36,69-15,468-375,489c-360,21-401.4,29.9-606.1,132s-255,253.1-405,273.6s-372-36.4-372-36.4
		s-291-296.7-255-386.9s435.8-351.2,447-369.3s1212.1-123,1290.1-123S1679.9-253.7,1679.9-253.7z"/>
</g>
<g id="Layer_2">
	<path class="st1" d="M-171.3,497.8c33,90,351,243,573.1,66s390-354,729.1-339c339,15,690.1-249,690.1-249s-792.1-177-840.1-177
		s-834.1,27-891.1,42s-201,129-210,138S-171.3,497.8-171.3,497.8z"/>
</g>
<g id="Layer_1">
</g>
</svg>
