<?xml version="1.0" encoding="utf-8"?>
<!-- Generator: Adobe Illustrator 22.1.0, SVG Export Plug-In . SVG Version: 6.00 Build 0)  -->
<svg version="1.1" xmlns="http://www.w3.org/2000/svg" xmlns:xlink="http://www.w3.org/1999/xlink" x="0px" y="0px"
	 viewBox="0 0 1920 1080" style="enable-background:new 0 0 1920 1080;" xml:space="preserve">
<style type="text/css">
	.st0{fill:#B6C1FF;}
	.st1{fill:#5B6BE8;}
</style>
<g id="Layer_2">
	<path class="st0" d="M357,575c0,0-10-74,88-96s220.5,8,262-14s414-320,544-210s-32,238-148,320S993.8,803,852.4,771
		S471,719,417,677S357,575,357,575z"/>
</g>
<g id="Layer_1">
	<path class="st1" d="M459,691c0,0-176-118-26-190s244,10,424-114s382-198,444-114s26,224-56,250s-220,102-254,240S459,691,459,691z
		"/>
</g>
</svg>
